<?xml version="1.0" encoding="utf-8"?>
<!-- Generator: Adobe Illustrator 25.4.1, SVG Export Plug-In . SVG Version: 6.00 Build 0)  -->
<svg version="1.0" id="katman_1" xmlns="http://www.w3.org/2000/svg" xmlns:xlink="http://www.w3.org/1999/xlink" x="0px" y="0px"
	 viewBox="0 0 1700 1200" style="enable-background:new 0 0 1700 1200;" xml:space="preserve">
<style type="text/css">
	.st0{clip-path:url(#SVGID_00000015341674893940015540000015949944720448359089_);fill:#0C0C0C;}
	.st1{fill:#0C0C0C;}
	.st2{fill:#67BF1B;}
</style>
<g>
	<g>
		<defs>
			<rect id="SVGID_1_" x="184.7" y="501.4" width="1330.6" height="197.1"/>
		</defs>
		<clipPath id="SVGID_00000150071800698881351210000016717317591110000301_">
			<use xlink:href="#SVGID_1_"  style="overflow:visible;"/>
		</clipPath>
		<path style="clip-path:url(#SVGID_00000150071800698881351210000016717317591110000301_);fill:#0C0C0C;" d="M350.2,649.7
			l-18.8-10.3c-2.3-1.3-5.2-0.6-6.7,1.6c-4.8,7.1-11.3,12.9-18.8,16.9c-7.7,4.3-16.5,6.5-25.4,6.5c-8.6,0.1-17-1.6-24.9-4.9
			c-7.5-3.2-14.2-7.8-19.9-13.7c-5.7-6.1-10.3-13.2-13.2-21.1c-3.2-8.6-4.9-17.8-4.8-27c-0.1-9.2,1.5-18.4,4.8-27.1
			c3-7.8,7.5-14.9,13.2-20.9c5.6-5.9,12.4-10.5,19.9-13.7c7.9-3.3,16.4-5,24.9-4.9c8.9,0,17.7,2.2,25.4,6.6
			c7.5,4.1,13.9,9.9,18.8,16.8c1.5,2.2,4.4,2.8,6.7,1.5l18.5-10.3c1.3-0.7,2.2-1.9,2.5-3.3c0.3-1.4,0-2.9-0.8-4.1
			c-3.8-5.2-8-10.1-12.7-14.5c-4.9-4.6-10.3-8.5-16-11.8c-6.2-3.5-12.7-6.1-19.5-7.9c-7.5-1.9-15.2-2.8-22.9-2.7
			c-12.9-0.1-25.6,2.3-37.5,7c-11.4,4.5-21.7,11.2-30.5,19.7c-8.8,8.7-15.8,19.1-20.5,30.5c-5.1,12.5-7.6,25.7-7.4,39.2
			c-0.1,13.4,2.4,26.7,7.4,39.1c4.7,11.4,11.6,21.8,20.5,30.5c8.8,8.6,19.1,15.3,30.5,19.7c11.9,4.7,24.7,7.1,37.5,7
			c14.9,0.5,29.6-3.2,42.5-10.6c11.3-6.8,21-15.8,28.8-26.3c0.9-1.2,1.2-2.7,0.9-4.1C352.4,651.6,351.5,650.3,350.2,649.7"/>
		<path style="clip-path:url(#SVGID_00000150071800698881351210000016717317591110000301_);fill:#0C0C0C;" d="M528.5,529.1
			c-8.3-8.8-18.2-15.7-29.3-20.4c-12-5-24.8-7.4-37.7-7.3c-12.9-0.1-25.7,2.4-37.7,7.3c-11.1,4.7-21.1,11.6-29.4,20.4
			c-8.2,8.9-14.6,19.3-18.9,30.7c-4.5,12.1-6.8,25-6.7,38c-0.1,13,2.2,25.9,6.7,38.1c4.3,11.4,10.7,21.8,18.9,30.7
			c8.3,8.8,18.2,15.7,29.4,20.4c12,5,24.8,7.5,37.7,7.3c12.9,0.1,25.8-2.4,37.7-7.3c11.1-4.7,21.1-11.6,29.3-20.4
			c8.2-8.9,14.6-19.3,18.9-30.7c4.5-12.2,6.8-25.1,6.6-38.1c0.1-13-2.1-25.9-6.6-38.1C543.1,548.4,536.7,538,528.5,529.1
			 M461.4,664.4c-8.5,0.1-16.9-1.6-24.7-5c-7.2-3.2-13.6-7.9-18.8-13.8c-5.3-6.2-9.4-13.3-12-21c-2.8-8.7-4.3-17.7-4.2-26.8
			c-0.1-9.1,1.4-18.2,4.2-26.9c2.6-7.7,6.6-14.9,12-21c5.2-5.8,11.6-10.5,18.8-13.7c7.8-3.4,16.2-5.1,24.7-5
			c8.5-0.1,16.8,1.6,24.6,5c7.1,3.2,13.5,7.9,18.7,13.7c5.3,6.2,9.5,13.3,12.1,21c2.9,8.7,4.4,17.7,4.3,26.8
			c0.1,9.1-1.4,18.1-4.3,26.8c-2.6,7.7-6.8,14.9-12.1,21.1c-5.2,5.9-11.5,10.6-18.6,13.8C478.2,662.8,469.9,664.5,461.4,664.4"/>
	</g>
	<path class="st1" d="M730,504.3h-22c-2.8,0-5.1,2.3-5.1,5.2v70.8H610v-70.8c0-2.8-2.3-5.2-5.1-5.2h-21.9c-2.8,0-5.2,2.3-5.1,5.2
		v176.4c0,2.8,2.3,5.1,5.1,5.1h21.9c2.8,0,5.1-2.3,5.1-5.1v-75.9h92.9v75.9c0,2.8,2.3,5.1,5.1,5.1h22c2.8,0,5.1-2.3,5.1-5.1V509.5
		C735.1,506.6,732.8,504.3,730,504.3"/>
	<path class="st1" d="M893.8,534.2c2.8,0,5.1-2.3,5.1-5.1v-19.5c0-2.8-2.3-5.2-5.1-5.2H770c-2.8,0-5.1,2.3-5.1,5.2v176.4
		c0,2.8,2.3,5.1,5.1,5.1h123.8c2.8,0,5.1-2.3,5.1-5.1v-19.6c0-2.8-2.3-5.1-5.1-5.1h-96.7v-50.6h90.8c2.8,0,5.2-2.3,5.2-5.1v-19.6
		c0-2.8-2.3-5.1-5.2-5.1h-90.8v-46.6H893.8z M893.8,534.2"/>
	<path class="st1" d="M1141.7,685.9V509.5c0-2.8-2.3-5.2-5.1-5.2h-22c-2.8,0-5.1,2.3-5.1,5.2v176.4c0,2.8,2.3,5.1,5.1,5.1h22
		C1139.5,691,1141.8,688.7,1141.7,685.9"/>
	<path class="st1" d="M1313.7,504.3h-141.7c-2.8,0-5.1,2.3-5.1,5.2v19.6c0,2.8,2.3,5.1,5.1,5.1h54.8v151.8c0,2.8,2.3,5.1,5.1,5.1h22
		c2.8,0,5.1-2.3,5.1-5.1V534.2h54.8c2.8,0,5.1-2.3,5.1-5.1v-19.5C1318.8,506.6,1316.5,504.3,1313.7,504.3"/>
	<path class="st1" d="M1505.5,507.1c-0.9-1.7-2.6-2.7-4.5-2.7h-25.7c-1.7,0-3.3,0.9-4.2,2.3l-50.5,75.6l-50.5-75.6
		c-1-1.4-2.6-2.3-4.2-2.3h-25.7c-1.9,0-3.6,1.1-4.5,2.7c-0.9,1.7-0.8,3.7,0.3,5.3l68.3,100.5v73c0,2.8,2.3,5.1,5.2,5.1h22.2
		c2.8,0,5.1-2.3,5.1-5.1v-73l68.4-100.5C1506.2,510.8,1506.3,508.8,1505.5,507.1"/>
	<path class="st2" d="M1063,528.2l5.2-17.8c0.9-3-1.4-6.1-4.5-6.1h-73.6c-19-0.3-37.2,7.3-50.3,21.1c-13.1,13.7-19.8,32.3-18.5,51.3
		c2.9,34.7,31.9,61.4,66.7,61.5h25.5c6.8,0.1,12.7-4.5,14.2-11.1c1.7-8.7-4.9-16.7-13.7-16.7h-24.5c-21,0.3-38.7-15.6-40.5-36.5
		c-1.4-22.5,16.4-41.6,39-41.6l69.7-0.1C1060.1,532.1,1062.2,530.5,1063,528.2"/>
	<path class="st2" d="M1014.7,557.1h-25.7c-6.7-0.1-12.5,4.5-14.1,11c-1.8,8.7,4.8,16.8,13.7,16.8h24.6
		c20.9-0.3,38.5,15.6,40.4,36.4c1.5,22.6-16.4,41.7-39,41.8h-70.5c-2,0-3.8,1.3-4.3,3.2l-5.5,18.8c-0.8,2.9,1.3,5.8,4.4,5.9h74.2
		c18.2,0.1,35.6-7,48.5-19.8c12.9-12.8,20.2-30.1,20.3-48.3C1081,586.4,1051.2,557.2,1014.7,557.1"/>
</g>
</svg>
