<?xml version="1.0" standalone="no"?>
<!DOCTYPE svg PUBLIC "-//W3C//DTD SVG 20010904//EN"
 "http://www.w3.org/TR/2001/REC-SVG-20010904/DTD/svg10.dtd">
<svg version="1.0" xmlns="http://www.w3.org/2000/svg"
 width="600.000000pt" height="384.000000pt" viewBox="0 0 600.000000 384.000000"
 preserveAspectRatio="xMidYMid meet">

<g transform="translate(0.000000,384.000000) scale(0.100000,-0.100000)"
fill="#000000" stroke="none">
<path d="M3279 3752 c-81 -83 -109 -121 -109 -144 0 -16 19 -1 78 62 65 70
100 125 89 137 -2 1 -28 -23 -58 -55z"/>
<path d="M3242 3651 l-82 -90 91 -83 c49 -46 94 -84 98 -86 10 -3 173 168 169
178 -5 12 -179 170 -187 170 -4 0 -44 -40 -89 -89z"/>
<path d="M3320 3249 c0 -136 22 -172 140 -226 41 -19 85 -44 98 -56 33 -31 57
-119 43 -160 -13 -36 -78 -107 -98 -107 -7 0 -13 -5 -13 -11 0 -5 -4 -7 -10
-4 -5 3 -10 -2 -10 -12 -1 -17 -2 -17 -15 1 -14 19 -15 19 -15 2 0 -13 -4 -16
-12 -9 -8 6 -56 7 -121 4 l-107 -7 -53 -50 c-30 -29 -84 -66 -128 -87 -71 -34
-122 -77 -172 -147 -10 -14 -16 -18 -13 -8 4 14 0 15 -26 7 -18 -5 -34 -13
-37 -17 -3 -5 -29 -17 -57 -26 -83 -27 -206 -110 -273 -182 -100 -109 -129
-220 -116 -443 5 -75 8 -167 8 -204 0 -41 3 -63 8 -55 6 8 9 1 10 -22 l1 -35
9 39 c6 25 6 60 -1 95 -16 85 -13 283 4 307 8 10 16 17 18 14 3 -3 17 -52 31
-109 33 -125 64 -182 116 -212 l39 -21 -2 -150 c-2 -138 -1 -150 17 -159 28
-16 117 -22 157 -12 31 8 35 13 35 41 0 31 2 32 40 32 80 0 107 21 83 63 -12
21 -29 109 -44 219 -8 60 1 98 24 98 31 0 106 54 136 98 30 43 46 53 46 28 0
-8 21 -45 46 -82 41 -59 46 -72 41 -107 -4 -28 -14 -47 -38 -66 -42 -35 -32
-41 79 -48 79 -5 91 -4 108 14 13 13 26 18 42 14 21 -6 22 -7 7 -28 -16 -22
-22 -23 -166 -23 l-149 0 0 -125 0 -125 141 0 141 0 39 43 38 42 1 118 c0 71
-4 116 -9 112 -18 -11 7 54 44 114 36 59 37 60 25 115 -13 65 -36 97 -95 131
-32 19 -49 39 -69 81 -20 41 -37 62 -71 82 -24 15 -44 29 -45 32 0 3 21 31 47
63 44 54 48 57 81 51 l35 -7 -6 35 c-5 31 -1 38 22 56 16 11 42 45 59 74 38
67 65 92 143 132 34 17 64 36 66 42 7 21 -49 32 -87 18 -51 -18 -59 -17 -66
11 -3 14 -14 25 -23 25 -9 0 18 15 59 34 120 53 180 85 181 99 0 6 4 34 8 61
6 36 4 67 -9 115 -16 64 -56 141 -73 141 -5 0 -15 6 -23 14 -7 8 -35 22 -61
32 -122 44 -133 51 -154 100 -12 25 -23 69 -26 98 -8 82 -23 79 -23 -5z m-35
-1539 c3 -5 2 -10 -4 -10 -5 0 -13 5 -16 10 -3 6 -2 10 4 10 5 0 13 -4 16 -10z"/>
<path d="M1960 580 l0 -370 95 0 95 0 0 128 c1 149 9 196 44 231 37 37 99 36
132 -2 23 -27 24 -34 24 -193 l0 -164 95 0 95 0 0 183 c0 102 -5 199 -11 222
-7 23 -28 57 -53 81 -33 34 -53 44 -101 54 -65 13 -145 2 -181 -25 -40 -30
-44 -21 -44 105 l0 120 -95 0 -95 0 0 -370z"/>
<path d="M3670 830 c0 -66 -2 -120 -4 -120 -3 0 -22 10 -43 23 -93 55 -252 12
-319 -86 -75 -109 -64 -277 24 -371 81 -86 255 -104 330 -34 l22 21 0 -26 0
-27 90 0 90 0 0 370 0 370 -95 0 -95 0 0 -120z m-65 -234 c43 -18 65 -61 65
-127 0 -45 -4 -55 -34 -85 -28 -28 -42 -34 -76 -34 -34 0 -48 6 -76 34 -30 30
-34 40 -34 85 0 65 22 108 63 126 41 18 50 18 92 1z"/>
<path d="M0 561 l0 -351 100 0 100 0 0 89 0 89 113 4 c94 3 121 8 167 29 99
47 149 120 150 218 0 81 -19 130 -70 182 -72 72 -109 81 -352 87 l-208 4 0
-351z m380 174 c59 -31 69 -107 21 -156 -28 -28 -34 -29 -115 -29 l-86 0 0
100 0 100 75 0 c48 0 87 -6 105 -15z"/>
<path d="M872 749 c-29 -5 -75 -19 -102 -30 l-49 -21 31 -62 c17 -33 31 -62
33 -64 1 -1 22 7 46 18 28 12 66 20 102 20 51 0 62 -4 88 -29 16 -16 29 -34
29 -39 0 -5 -48 -12 -107 -16 -125 -7 -184 -30 -221 -86 -20 -29 -23 -45 -20
-88 6 -64 29 -99 88 -130 32 -16 62 -22 106 -22 70 0 108 11 142 42 l22 21 0
-26 0 -27 90 0 90 0 0 168 c0 242 -23 305 -129 351 -58 24 -164 34 -239 20z
m178 -349 c0 -68 -102 -108 -150 -60 -48 48 -5 88 98 89 51 1 52 1 52 -29z"/>
<path d="M1541 745 c-138 -39 -211 -132 -211 -270 0 -83 21 -135 75 -190 63
-62 114 -80 230 -80 92 0 104 2 152 29 45 25 114 99 102 110 -2 2 -34 20 -71
40 l-68 38 -34 -36 c-28 -31 -40 -36 -77 -36 -75 0 -119 49 -119 132 0 117
116 163 203 80 l27 -26 48 23 c89 43 94 48 78 79 -49 93 -205 143 -335 107z"/>
<path d="M4158 747 c-164 -47 -247 -211 -188 -371 41 -108 154 -176 294 -176
87 0 154 18 202 55 l36 27 -53 54 -52 53 -24 -19 c-60 -47 -187 -29 -218 31
l-16 29 201 0 200 0 0 43 c0 111 -65 215 -160 256 -64 27 -160 35 -222 18z
m145 -138 c21 -9 57 -56 57 -73 0 -3 -49 -6 -110 -6 -60 0 -110 3 -110 8 1 18
29 56 51 68 29 16 80 18 112 3z"/>
<path d="M4930 751 c-39 -8 -76 -26 -102 -49 -17 -14 -18 -13 -18 16 l0 32
-90 0 -90 0 0 -270 0 -270 95 0 95 0 0 145 c0 113 4 153 16 176 17 35 67 59
119 59 l35 0 0 85 c0 62 -3 85 -12 84 -7 -1 -29 -4 -48 -8z"/>
<path d="M5339 745 c-26 -8 -52 -22 -59 -30 -18 -22 -30 -18 -30 10 0 25 -1
25 -90 25 l-90 0 0 -270 0 -270 94 0 94 0 4 165 c3 160 4 165 28 190 38 38 81
42 116 12 l29 -25 3 -171 3 -171 94 0 94 0 3 165 c3 164 3 165 30 192 35 35
89 37 121 5 21 -21 22 -32 25 -192 l4 -170 95 0 95 0 -4 198 c-3 178 -5 201
-25 237 -24 45 -44 66 -89 89 -77 38 -180 28 -255 -26 l-41 -30 -27 25 c-14
13 -36 30 -47 36 -38 19 -126 22 -175 6z"/>
<path d="M2605 713 c9 -21 61 -144 116 -274 55 -130 97 -243 94 -251 -7 -17
-47 -38 -73 -38 -9 0 -30 7 -46 15 -15 8 -30 15 -32 15 -2 0 -18 -28 -35 -62
l-31 -62 21 -17 c36 -29 127 -44 190 -31 68 14 110 43 149 101 25 37 272 615
272 635 0 3 -40 6 -88 6 l-88 0 -65 -160 c-35 -88 -66 -160 -70 -160 -3 0 -34
72 -70 160 l-64 160 -98 0 -97 0 15 -37z"/>
</g>
</svg>
