<?xml version="1.0" encoding="utf-8"?>
<!-- Generator: Adobe Illustrator 19.2.1, SVG Export Plug-In . SVG Version: 6.00 Build 0)  -->
<svg version="1.1" id="layer" xmlns="http://www.w3.org/2000/svg" xmlns:xlink="http://www.w3.org/1999/xlink" x="0px" y="0px"
	 viewBox="0 0 652 652" style="enable-background:new 0 0 652 652;" xml:space="preserve">
<style type="text/css">
	.st0{fill:#B42024;}
	.st1{font-family:'Calibri';}
	.st2{font-size:103.966px;}
</style>
<g>
	<path class="st0" d="M220.1,300.2L220.1,300.2c10.4,0,18.3,5.4,18.3,27.2h-39.1C201,306.6,209.7,300.2,220.1,300.2 M274,399.1
		L274,399.1l-8.7-25.4c-17.4,6.4-27.8,9.1-37.4,9.1c-20,0-27.8-12.7-28.7-30.9h75.7v-17.2c0-44.5-21.7-61.7-53.9-61.7
		c-33.9,0-60.9,21.8-60.9,68.1c0,39.9,15.7,70.8,63.5,70.8C241.8,411.8,258.4,407.3,274,399.1"/>
	<path class="st0" d="M556.6,300.2L556.6,300.2c3.5,0,7,0.9,10.4,1.8l-35.7,57.2c-0.9-4.5-1.7-10.9-1.7-17.2
		C529.7,311.1,541,300.2,556.6,300.2 M544.4,382.8L544.4,382.8c-2.6-1.8-4.3-3.6-6.1-5.4L544.4,382.8z M581.8,342L581.8,342
		c0,31.8-9.6,43.6-26.1,43.6c-4.3,0-7.8-0.9-11.3-2.7l35.7-59C581,328.4,581.8,334.7,581.8,342 M621,340.2L621,340.2
		c0-39-18.3-67.2-63.5-67.2c-45.2,0-67,27.2-67,69.9c0,40.8,18.3,69,63.5,69C599.2,411.8,621,383.7,621,340.2"/>
	<path class="st0" d="M495.8,401.9L495.8,401.9l-9.6-21.8c-1.7,0.9-4.3,0.9-6.1,1.8h-0.9c-3.5,0.9-7,0.9-11.3,0.9
		c-13,0-16.5-5.4-16.5-20.9v-1.8v-60.8v-1.8h37.4v-25.4h-35.7c-1.7,0-1.7-0.9-1.7-2.7v-29.9v-1.8h-24.3c-0.9,4.5-1.7,9.1-2.6,12.7
		c-4.3,13.6-13.9,20-30.4,20.9v3.6v17.2v5.4h1.7h5.2h10.4c2.6,0,2.6,0.9,2.6,2.7v1.8v66.2v1.8c0,29.9,11.3,41.7,40.9,41.7
		C468.8,411.8,484.4,407.3,495.8,401.9"/>
	<path class="st0" d="M150.5,400.1L150.5,400.1v-2.7v-42.7h-25.2l-4.3,25.4c0,2.7-0.9,2.7-3.5,2.7H66.2l85.2-122.5v-22.7h-87H27.1
		h-4.3h-0.9V293h0.9h4.3h20.9l4.3-25.4c0-2.7,0.9-2.7,3.5-2.7h48.7L21,385.5v17.2v6.4h129.6V400.1z"/>
	<path class="st0" d="M353.1,401.9L353.1,401.9v-14.5l-11.3-0.9c-1.7-0.9-2.6-0.9-3.5-1.8c-0.9-0.9-0.9-1.8-0.9-3.6v-68.1l3.5-3.6
		c5.2-4.5,18.3-11.8,40.9-11.8h1.7v-5.4v-16.3v-4.5c-4.3,0-10.4-0.9-13.9-0.9c-15.7,0-27,10-35.7,23.6h-0.9l-3.5-20.9h-43.5
		l-2.6,20.9l13,5.4c2.6,0.9,3.5,2.7,3.5,5.4V381c0,3.6-0.9,4.5-4.3,5.4l-11.3,0.9v21.8h68.7V401.9z"/>
</g>
<text transform="matrix(1 0 0 1 39.4609 317.8588)" class="st1 st2"> </text>
</svg>
